<svg width="236" height="35" viewBox="0 0 236 35" fill="none" xmlns="http://www.w3.org/2000/svg">
<path d="M8.76 6.64V15.52H24.312V21.76H8.76V34H0.984V0.399998H26.376V6.64H8.76ZM31.6403 0.399998H39.4163V27.664H56.2643V34H31.6403V0.399998ZM86.625 27.76V34H60.609V0.399998H86.001V6.64H68.337V13.936H83.937V19.984H68.337V27.76H86.625ZM113.652 34L105.54 22.336L97.572 34H88.644L101.076 16.912L89.268 0.399998H98.1L105.828 11.296L113.412 0.399998H121.812L110.1 16.624L122.628 34H113.652ZM163.134 0.399998V34H159.726V7.12L146.526 29.728H144.846L131.646 7.264V34H128.238V0.399998H131.166L145.758 25.312L160.206 0.399998H163.134ZM195.153 25.024H176.433L172.401 34H168.705L184.065 0.399998H187.569L202.929 34H199.185L195.153 25.024ZM193.857 22.144L185.793 4.096L177.729 22.144H193.857ZM231.683 17.2H235.091V30.016C233.523 31.392 231.667 32.448 229.523 33.184C227.379 33.92 225.123 34.288 222.755 34.288C219.395 34.288 216.371 33.552 213.683 32.08C210.995 30.608 208.883 28.576 207.347 25.984C205.811 23.36 205.043 20.432 205.043 17.2C205.043 13.968 205.811 11.056 207.347 8.464C208.883 5.84 210.995 3.792 213.683 2.32C216.371 0.847999 219.411 0.111999 222.803 0.111999C225.363 0.111999 227.715 0.527999 229.859 1.36C232.003 2.16 233.811 3.36 235.283 4.96L233.075 7.216C230.419 4.592 227.043 3.28 222.947 3.28C220.227 3.28 217.763 3.888 215.555 5.104C213.379 6.288 211.667 7.952 210.419 10.096C209.171 12.208 208.547 14.576 208.547 17.2C208.547 19.824 209.171 22.192 210.419 24.304C211.667 26.416 213.379 28.08 215.555 29.296C217.731 30.512 220.179 31.12 222.899 31.12C226.355 31.12 229.283 30.256 231.683 28.528V17.2Z" fill="#333333"/>
</svg>
