<svg width="147" height="23" viewBox="0 0 147 23" fill="none" xmlns="http://www.w3.org/2000/svg">
<path d="M5.35 4.9V10.45H15.07V14.35H5.35V22H0.49V0.999999H16.36V4.9H5.35ZM19.6502 0.999999H24.5102V18.04H35.0402V22H19.6502V0.999999ZM54.0156 18.1V22H37.7556V0.999999H53.6256V4.9H42.5856V9.46H52.3356V13.24H42.5856V18.1H54.0156ZM70.9075 22L65.8375 14.71L60.8575 22H55.2775L63.0475 11.32L55.6675 0.999999H61.1875L66.0175 7.81L70.7575 0.999999H76.0075L68.6875 11.14L76.5175 22H70.9075ZM101.834 0.999999V22H99.7035V5.2L91.4535 19.33H90.4035L82.1535 5.29V22H80.0235V0.999999H81.8535L90.9735 16.57L100.004 0.999999H101.834ZM121.846 16.39H110.146L107.626 22H105.316L114.916 0.999999H117.106L126.706 22H124.366L121.846 16.39ZM121.036 14.59L115.996 3.31L110.956 14.59H121.036ZM144.677 11.5H146.807V19.51C145.827 20.37 144.667 21.03 143.327 21.49C141.987 21.95 140.577 22.18 139.097 22.18C136.997 22.18 135.107 21.72 133.427 20.8C131.747 19.88 130.427 18.61 129.467 16.99C128.507 15.35 128.027 13.52 128.027 11.5C128.027 9.48 128.507 7.66 129.467 6.04C130.427 4.4 131.747 3.12 133.427 2.2C135.107 1.28 137.007 0.819999 139.127 0.819999C140.727 0.819999 142.197 1.08 143.537 1.6C144.877 2.1 146.007 2.85 146.927 3.85L145.547 5.26C143.887 3.62 141.777 2.8 139.217 2.8C137.517 2.8 135.977 3.18 134.597 3.94C133.237 4.68 132.167 5.72 131.387 7.06C130.607 8.38 130.217 9.86 130.217 11.5C130.217 13.14 130.607 14.62 131.387 15.94C132.167 17.26 133.237 18.3 134.597 19.06C135.957 19.82 137.487 20.2 139.187 20.2C141.347 20.2 143.177 19.66 144.677 18.58V11.5Z" fill="white"/>
</svg>
