<svg width="142" height="23" viewBox="0 0 142 23" fill="none" xmlns="http://www.w3.org/2000/svg">
<path d="M8.48 22.21C6.94 22.21 5.56 21.96 4.34 21.46C3.12 20.96 2.14 20.22 1.4 19.24C0.68 18.26 0.3 17.08 0.26 15.7H5.72C5.8 16.48 6.07 17.08 6.53 17.5C6.99 17.9 7.59 18.1 8.33 18.1C9.09 18.1 9.69 17.93 10.13 17.59C10.57 17.23 10.79 16.74 10.79 16.12C10.79 15.6 10.61 15.17 10.25 14.83C9.91 14.49 9.48 14.21 8.96 13.99C8.46 13.77 7.74 13.52 6.8 13.24C5.44 12.82 4.33 12.4 3.47 11.98C2.61 11.56 1.87 10.94 1.25 10.12C0.63 9.3 0.32 8.23 0.32 6.91C0.32 4.95 1.03 3.42 2.45 2.32C3.87 1.2 5.72 0.64 8 0.64C10.32 0.64 12.19 1.2 13.61 2.32C15.03 3.42 15.79 4.96 15.89 6.94H10.34C10.3 6.26 10.05 5.73 9.59 5.35C9.13 4.95 8.54 4.75 7.82 4.75C7.2 4.75 6.7 4.92 6.32 5.26C5.94 5.58 5.75 6.05 5.75 6.67C5.75 7.35 6.07 7.88 6.71 8.26C7.35 8.64 8.35 9.05 9.71 9.49C11.07 9.95 12.17 10.39 13.01 10.81C13.87 11.23 14.61 11.84 15.23 12.64C15.85 13.44 16.16 14.47 16.16 15.73C16.16 16.93 15.85 18.02 15.23 19C14.63 19.98 13.75 20.76 12.59 21.34C11.43 21.92 10.06 22.21 8.48 22.21ZM35.367 7.72C35.367 8.94 35.087 10.06 34.527 11.08C33.967 12.08 33.107 12.89 31.947 13.51C30.787 14.13 29.347 14.44 27.627 14.44H24.447V22H19.317V0.939999H27.627C29.307 0.939999 30.727 1.23 31.887 1.81C33.047 2.39 33.917 3.19 34.497 4.21C35.077 5.23 35.367 6.4 35.367 7.72ZM27.237 10.36C28.217 10.36 28.947 10.13 29.427 9.67C29.907 9.21 30.147 8.56 30.147 7.72C30.147 6.88 29.907 6.23 29.427 5.77C28.947 5.31 28.217 5.08 27.237 5.08H24.447V10.36H27.237ZM47.9977 22.21C46.0177 22.21 44.1977 21.75 42.5377 20.83C40.8977 19.91 39.5877 18.63 38.6077 16.99C37.6477 15.33 37.1677 13.47 37.1677 11.41C37.1677 9.35 37.6477 7.5 38.6077 5.86C39.5877 4.22 40.8977 2.94 42.5377 2.02C44.1977 1.1 46.0177 0.64 47.9977 0.64C49.9777 0.64 51.7877 1.1 53.4277 2.02C55.0877 2.94 56.3877 4.22 57.3277 5.86C58.2877 7.5 58.7677 9.35 58.7677 11.41C58.7677 13.47 58.2877 15.33 57.3277 16.99C56.3677 18.63 55.0677 19.91 53.4277 20.83C51.7877 21.75 49.9777 22.21 47.9977 22.21ZM47.9977 17.53C49.6777 17.53 51.0177 16.97 52.0177 15.85C53.0377 14.73 53.5477 13.25 53.5477 11.41C53.5477 9.55 53.0377 8.07 52.0177 6.97C51.0177 5.85 49.6777 5.29 47.9977 5.29C46.2977 5.29 44.9377 5.84 43.9177 6.94C42.9177 8.04 42.4177 9.53 42.4177 11.41C42.4177 13.27 42.9177 14.76 43.9177 15.88C44.9377 16.98 46.2977 17.53 47.9977 17.53ZM72.3617 22L67.9817 14.05H66.7517V22H61.6217V0.939999H70.2317C71.8917 0.939999 73.3017 1.23 74.4617 1.81C75.6417 2.39 76.5217 3.19 77.1017 4.21C77.6817 5.21 77.9717 6.33 77.9717 7.57C77.9717 8.97 77.5717 10.22 76.7717 11.32C75.9917 12.42 74.8317 13.2 73.2917 13.66L78.1517 22H72.3617ZM66.7517 10.42H69.9317C70.8717 10.42 71.5717 10.19 72.0317 9.73C72.5117 9.27 72.7517 8.62 72.7517 7.78C72.7517 6.98 72.5117 6.35 72.0317 5.89C71.5717 5.43 70.8717 5.2 69.9317 5.2H66.7517V10.42ZM96.342 0.939999V5.05H90.762V22H85.632V5.05H80.052V0.939999H96.342ZM105.877 1.09C108.157 1.09 110.127 1.52 111.787 2.38C113.467 3.22 114.747 4.43 115.627 6.01C116.527 7.59 116.977 9.45 116.977 11.59C116.977 13.73 116.527 15.59 115.627 17.17C114.747 18.73 113.467 19.93 111.787 20.77C110.127 21.59 108.157 22 105.877 22H99.3666V1.09H105.877ZM105.877 19.75C108.577 19.75 110.637 19.04 112.057 17.62C113.477 16.18 114.187 14.17 114.187 11.59C114.187 8.99 113.467 6.96 112.027 5.5C110.607 4.04 108.557 3.31 105.877 3.31H102.097V19.75H105.877ZM141.788 1.24V22H139.058V6.52L132.158 22H130.238L123.308 6.49V22H120.578V1.24H123.518L131.198 18.4L138.878 1.24H141.788Z" fill="white"/>
</svg>
